<svg xmlns="http://www.w3.org/2000/svg" width="30" height="30" viewBox="0 0 30 30">
    <path fill="#FFF" fill-rule="nonzero" d="M29.116 8.727L29.103 0H0v29.99h29.103v-8.734l-5.891-6.351 5.904-6.178zM26.79 22.28v5.397H2.37V2.313h24.42v5.5l-5.19 5.425c-.48-.463-.952-.897-1.407-1.293-.955-.831-1.781-1.453-2.518-1.898l-.079.017-.024-.082a5.642 5.642 0 0 0-.756-.39 4.209 4.209 0 0 0-.962-.311 5.713 5.713 0 0 0-1.271-.145c-3.145 0-5.785 2.575-5.785 5.722 0 3.145 2.586 5.787 5.73 5.787a5.67 5.67 0 0 0 1.255-.139c.193-.04.684-.199.703-.207l.115-.046c1.552-.625 3.019-1.803 4.175-2.897l.055-.051-1.59-1.702-.071.065c-.835.777-2.2 1.942-3.42 2.422l-.046.016c-.371.137-.764.205-1.165.205-1.87 0-3.43-1.582-3.43-3.453 0-1.87 1.521-3.39 3.39-3.39.422 0 .905.093 1.292.243.783.34 2.214 1.344 4.104 3.185v.003l.077.071c.406.38.903.867 1.473 1.445l5.345 5.864z"/>
</svg>
