<svg xmlns="http://www.w3.org/2000/svg" width="134" height="30" viewBox="0 0 134 30">
    <g fill="#FFF" fill-rule="nonzero">
        <path d="M57.968 22.803h-3.922l6.947-15.688h3.294l6.99 15.688h-3.922l-1.344-3.227h-6.723l-1.32 3.227zm2.51-6.118h4.325l-2.174-5.244-2.152 5.244zM80.084 7.115h-7.35v15.688h3.564V10.208h3.788c1.95 0 3.025.807 3.025 2.376v.425c0 1.568-1.077 2.422-3.025 2.422h-2.599v3.049h2.6c4.055 0 6.588-2.015 6.588-5.198v-.963c-.002-3.185-2.533-5.204-6.591-5.204zM105 7.115h11.9v3.093h-8.338v3.115h6.946v3.046h-6.946v3.363h8.536v3.07h-12.1zM119.253 7.115h3.63l7.372 10.04-.112-10.04h3.54v15.688h-3.698l-7.307-9.928.09 9.928h-3.518zM96.218 7.115h-7.35v15.688h3.565V10.208h3.788c1.95 0 3.024.807 3.024 2.376v.425c0 1.568-1.074 2.422-3.024 2.422h-2.6v3.049h2.6c4.058 0 6.589-2.015 6.589-5.198v-.963c-.005-3.185-2.536-5.204-6.592-5.204zM50.64 17.065a5.032 5.032 0 0 1-4.598 2.948c-3.137 0-4.743-2.771-4.743-5.018 0-2.87 2.09-5.027 4.986-5.027 2.203 0 3.968 1.647 4.579 3.554l3.414-1.181a7.669 7.669 0 0 0-2.392-3.674l-.032-.027c-.028-.022-.052-.044-.08-.065-1.47-1.296-3.4-1.937-5.574-1.937-1.958 0-3.764.685-4.917 1.557-2.024 1.394-3.508 3.682-3.573 6.712a8.304 8.304 0 0 0 .4 2.774c0 .003 0 .003.004.005.387 1.176 2.599 5.668 7.999 5.668 2.173 0 4.535-.606 6.1-2.37a7.718 7.718 0 0 0 1.812-2.76l-3.385-1.16zM29.116 8.727L29.103 0H0v29.99h29.103v-8.734l-5.891-6.351 5.904-6.178zM26.79 22.28v5.397H2.37V2.313h24.42v5.5l-5.19 5.425c-.48-.463-.952-.897-1.407-1.293-.955-.831-1.781-1.453-2.518-1.898l-.079.017-.024-.082a5.642 5.642 0 0 0-.756-.39 4.209 4.209 0 0 0-.962-.311 5.713 5.713 0 0 0-1.271-.145c-3.145 0-5.785 2.575-5.785 5.722 0 3.145 2.586 5.787 5.73 5.787a5.67 5.67 0 0 0 1.255-.139c.193-.04.684-.199.703-.207l.115-.046c1.552-.625 3.019-1.803 4.175-2.897l.055-.051-1.59-1.702-.071.065c-.835.777-2.2 1.942-3.42 2.422l-.046.016c-.371.137-.764.205-1.165.205-1.87 0-3.43-1.582-3.43-3.453 0-1.87 1.521-3.39 3.39-3.39.422 0 .905.093 1.292.243.783.34 2.214 1.344 4.104 3.185v.003l.077.071c.406.38.903.867 1.473 1.445l5.345 5.864z"/>
    </g>
</svg>
